<svg width="124" height="52" viewBox="0 0 124 52" fill="none" xmlns="http://www.w3.org/2000/svg">
<path d="M57.3125 25.5214C57.3125 22.4864 58.4191 19.8796 60.6324 17.7011C62.8364 15.5226 65.4849 14.4333 68.5779 14.4333C71.6339 14.4333 74.2546 15.5319 76.4401 17.729C78.6349 19.9262 79.7322 22.5655 79.7322 25.6471C79.7322 28.7473 78.6302 31.3773 76.4262 33.5372C74.213 35.7064 71.5413 36.791 68.4112 36.791C65.6423 36.791 63.1559 35.8275 60.9519 33.9003C58.5256 31.7684 57.3125 28.9754 57.3125 25.5214ZM60.5768 25.5633C60.5768 27.9466 61.3732 29.9064 62.9661 31.4425C64.5496 32.9786 66.3786 33.7467 68.4529 33.7467C70.7032 33.7467 72.6016 32.9647 74.1481 31.4006C75.6946 29.8179 76.4679 27.8908 76.4679 25.6192C76.4679 23.3196 75.7039 21.3925 74.1759 19.8377C72.6572 18.2737 70.7773 17.4916 68.5363 17.4916C66.3045 17.4916 64.42 18.2737 62.8827 19.8377C61.3455 21.3832 60.5768 23.2917 60.5768 25.5633Z" fill="#1D1F1F"/>
<path d="M83.0521 36.4L87.5666 13.2184L94.9288 29.9762L102.555 13.2184L106.611 36.4H103.291L101.221 23.3848L94.8732 37.3915L88.7057 23.3708L86.3998 36.4H83.0521Z" fill="#1D1F1F"/>
<path d="M123.002 17.8966H114.404V23.0776H122.752V26.1359H114.404V33.3417H123.002V36.4H111.167V14.8383H123.002V17.8966Z" fill="#1D1F1F"/>
<ellipse cx="25.8621" cy="26" rx="25.8621" ry="26" fill="#E9672B"/>
<path fill-rule="evenodd" clip-rule="evenodd" d="M40.6657 15.6C40.3466 15.6 40.0879 15.8587 40.0879 16.1778V24.7L10.9927 24.6999V16.1778C10.9927 15.8587 10.734 15.6 10.4149 15.6H8.98428C8.66519 15.6 8.40651 15.8587 8.40651 16.1778V24.6999H8.40625V27.3H8.40651V35.8223C8.40651 36.1414 8.66519 36.4 8.98428 36.4H10.4149C10.734 36.4 10.9927 36.1414 10.9927 35.8223V27.3L40.0879 27.3V35.8222C40.0879 36.1413 40.3466 36.4 40.6657 36.4H42.0963C42.4154 36.4 42.6741 36.1413 42.6741 35.8222V16.1778C42.6741 15.8587 42.4154 15.6 42.0963 15.6H40.6657Z" fill="white"/>
<ellipse cx="25.6499" cy="20.8" rx="1.72414" ry="1.73333" fill="white"/>
<ellipse cx="25.6499" cy="31.2" rx="1.72414" ry="1.73333" fill="white"/>
</svg>
