<svg width="120" height="120" viewBox="0 0 120 120" fill="none" xmlns="http://www.w3.org/2000/svg">
<circle cx="60" cy="60" r="60" fill="#FBF8F5"/>
<path d="M90 54H87V41C87 40.7348 86.8946 40.4804 86.7071 40.2929C86.5196 40.1054 86.2652 40 86 40H74C73.7348 40 73.4804 40.1054 73.2929 40.2929C73.1054 40.4804 73 40.7348 73 41V54H54.7812L54.2812 52H61.5C62.4279 51.999 63.3176 51.6299 63.9737 50.9737C64.6299 50.3176 64.999 49.4279 65 48.5V35.5C64.999 34.5721 64.6299 33.6824 63.9737 33.0263C63.3176 32.3701 62.4279 32.001 61.5 32H36.5C35.5721 32.001 34.6824 32.3701 34.0263 33.0263C33.3701 33.6824 33.001 34.5721 33 35.5V48.5C33.001 49.4279 33.3701 50.3176 34.0263 50.9737C34.6824 51.6299 35.5721 51.999 36.5 52H43.7188L43.2188 54H30C29.7348 54 29.4804 54.1054 29.2929 54.2929C29.1054 54.4804 29 54.7348 29 55V87C29 87.2652 29.1054 87.5196 29.2929 87.7071C29.4804 87.8946 29.7348 88 30 88H33C33.2652 88 33.5196 87.8946 33.7071 87.7071C33.8946 87.5196 34 87.2652 34 87V68H65V87C65 87.2652 65.1054 87.5196 65.2929 87.7071C65.4804 87.8946 65.7348 88 66 88H69C69.2652 88 69.5196 87.8946 69.7071 87.7071C69.8946 87.5196 70 87.2652 70 87V84H86V87C86 87.2652 86.1054 87.5196 86.2929 87.7071C86.4804 87.8946 86.7348 88 87 88H90C90.2652 88 90.5196 87.8946 90.7071 87.7071C90.8946 87.5196 91 87.2652 91 87V55C91 54.7348 90.8946 54.4804 90.7071 54.2929C90.5196 54.1054 90.2652 54 90 54ZM81 42H85V54H81V42ZM75 42H79V54H75V42ZM35 35.5C35.0003 35.1023 35.1585 34.7209 35.4397 34.4397C35.7209 34.1585 36.1023 34.0003 36.5 34H61.5C61.8977 34.0003 62.2791 34.1585 62.5603 34.4397C62.8415 34.7209 62.9997 35.1023 63 35.5V47H35V35.5ZM36.5 50C36.1902 49.9994 35.8881 49.903 35.6352 49.7239C35.3823 49.5449 35.191 49.292 35.0875 49H62.9125C62.809 49.292 62.6177 49.5449 62.3648 49.7239C62.1119 49.903 61.8098 49.9994 61.5 50H36.5ZM52.7188 54H45.2812L45.7812 52H52.2188L52.7188 54ZM32 86H31V60H32V86ZM65 66H34V60H65V66ZM68 86H67V60H68V86ZM86 82H70V76H86V82ZM86 74H70V68H86V74ZM86 66H70V60H86V66ZM89 86H88V60H89V86ZM89 58H31V56H89V58Z" fill="#E9672B"/>
<path d="M75 64H81C81.2652 64 81.5196 63.8946 81.7071 63.7071C81.8946 63.5196 82 63.2652 82 63C82 62.7348 81.8946 62.4804 81.7071 62.2929C81.5196 62.1054 81.2652 62 81 62H75C74.7348 62 74.4804 62.1054 74.2929 62.2929C74.1054 62.4804 74 62.7348 74 63C74 63.2652 74.1054 63.5196 74.2929 63.7071C74.4804 63.8946 74.7348 64 75 64Z" fill="#E9672B"/>
<path d="M81 70H75C74.7348 70 74.4804 70.1054 74.2929 70.2929C74.1054 70.4804 74 70.7348 74 71C74 71.2652 74.1054 71.5196 74.2929 71.7071C74.4804 71.8946 74.7348 72 75 72H81C81.2652 72 81.5196 71.8946 81.7071 71.7071C81.8946 71.5196 82 71.2652 82 71C82 70.7348 81.8946 70.4804 81.7071 70.2929C81.5196 70.1054 81.2652 70 81 70Z" fill="#E9672B"/>
<path d="M81 78H75C74.7348 78 74.4804 78.1054 74.2929 78.2929C74.1054 78.4804 74 78.7348 74 79C74 79.2652 74.1054 79.5196 74.2929 79.7071C74.4804 79.8946 74.7348 80 75 80H81C81.2652 80 81.5196 79.8946 81.7071 79.7071C81.8946 79.5196 82 79.2652 82 79C82 78.7348 81.8946 78.4804 81.7071 78.2929C81.5196 78.1054 81.2652 78 81 78Z" fill="#E9672B"/>
<path d="M52 62H46C45.7348 62 45.4804 62.1054 45.2929 62.2929C45.1054 62.4804 45 62.7348 45 63C45 63.2652 45.1054 63.5196 45.2929 63.7071C45.4804 63.8946 45.7348 64 46 64H52C52.2652 64 52.5196 63.8946 52.7071 63.7071C52.8946 63.5196 53 63.2652 53 63C53 62.7348 52.8946 62.4804 52.7071 62.2929C52.5196 62.1054 52.2652 62 52 62Z" fill="#E9672B"/>
</svg>
